<mxfile host="Electron" modified="2024-01-09T15:48:24.322Z" agent="Mozilla/5.0 (Windows NT 10.0; Win64; x64) AppleWebKit/537.36 (KHTML, like Gecko) draw.io/22.0.0 Chrome/114.0.5735.289 Electron/25.8.3 Safari/537.36" etag="uMjmaO_FYlRbaVuNXW9q" version="22.0.0" type="device">
  <diagram name="Page-1" id="6o2AzRBRGi5axFEUv6cR">
    <mxGraphModel dx="574" dy="334" grid="1" gridSize="10" guides="1" tooltips="1" connect="1" arrows="1" fold="1" page="1" pageScale="1" pageWidth="827" pageHeight="1169" math="0" shadow="0">
      <root>
        <mxCell id="0" />
        <mxCell id="1" parent="0" />
        <mxCell id="Ra7P1JBBZSfs96q6E-a3-4" style="edgeStyle=orthogonalEdgeStyle;rounded=0;orthogonalLoop=1;jettySize=auto;html=1;exitX=1;exitY=0.5;exitDx=0;exitDy=0;entryX=0;entryY=0.5;entryDx=0;entryDy=0;" edge="1" parent="1" source="Ra7P1JBBZSfs96q6E-a3-1" target="Ra7P1JBBZSfs96q6E-a3-3">
          <mxGeometry relative="1" as="geometry" />
        </mxCell>
        <mxCell id="Ra7P1JBBZSfs96q6E-a3-1" value="Input: Text file" style="rounded=0;whiteSpace=wrap;html=1;fillColor=#0050ef;fontColor=#ffffff;strokeColor=#001DBC;fontSize=15;fontStyle=1" vertex="1" parent="1">
          <mxGeometry x="240" y="80" width="80" height="80" as="geometry" />
        </mxCell>
        <mxCell id="Ra7P1JBBZSfs96q6E-a3-2" value="&lt;div style=&quot;&quot;&gt;&lt;ul&gt;&lt;li&gt;&lt;span style=&quot;background-color: initial;&quot;&gt;Text file&lt;/span&gt;&lt;/li&gt;&lt;li&gt;Each line of text contains digits mixed in with the letters&lt;/li&gt;&lt;li&gt;Isolate the first and last digits, and use them to make a 2 digit number.&lt;/li&gt;&lt;li&gt;Sum all of the resultant numbers&lt;/li&gt;&lt;/ul&gt;&lt;/div&gt;" style="text;html=1;strokeColor=none;fillColor=none;align=left;verticalAlign=middle;whiteSpace=wrap;rounded=0;" vertex="1" parent="1">
          <mxGeometry x="40" y="200" width="300" height="150" as="geometry" />
        </mxCell>
        <mxCell id="Ra7P1JBBZSfs96q6E-a3-7" style="edgeStyle=orthogonalEdgeStyle;rounded=0;orthogonalLoop=1;jettySize=auto;html=1;exitX=1;exitY=0.5;exitDx=0;exitDy=0;entryX=0;entryY=0.5;entryDx=0;entryDy=0;" edge="1" parent="1" source="Ra7P1JBBZSfs96q6E-a3-3" target="Ra7P1JBBZSfs96q6E-a3-5">
          <mxGeometry relative="1" as="geometry" />
        </mxCell>
        <mxCell id="Ra7P1JBBZSfs96q6E-a3-3" value="Read file" style="rounded=0;whiteSpace=wrap;html=1;fillColor=#0050ef;fontColor=#ffffff;strokeColor=#001DBC;fontSize=15;fontStyle=1" vertex="1" parent="1">
          <mxGeometry x="400" y="80" width="80" height="80" as="geometry" />
        </mxCell>
        <mxCell id="Ra7P1JBBZSfs96q6E-a3-14" value="" style="edgeStyle=orthogonalEdgeStyle;rounded=0;orthogonalLoop=1;jettySize=auto;html=1;" edge="1" parent="1" source="Ra7P1JBBZSfs96q6E-a3-5" target="Ra7P1JBBZSfs96q6E-a3-13">
          <mxGeometry relative="1" as="geometry" />
        </mxCell>
        <mxCell id="Ra7P1JBBZSfs96q6E-a3-5" value="&amp;nbsp; &amp;nbsp;For each line:" style="rounded=0;whiteSpace=wrap;html=1;fillColor=#a20025;fontColor=#ffffff;strokeColor=none;fontSize=10;fontStyle=1;align=left;opacity=33;perimeterSpacing=1;strokeWidth=1;" vertex="1" parent="1">
          <mxGeometry x="560" y="40" width="440" height="160" as="geometry" />
        </mxCell>
        <mxCell id="Ra7P1JBBZSfs96q6E-a3-9" value="" style="edgeStyle=orthogonalEdgeStyle;rounded=0;orthogonalLoop=1;jettySize=auto;html=1;" edge="1" parent="1" source="Ra7P1JBBZSfs96q6E-a3-6" target="Ra7P1JBBZSfs96q6E-a3-8">
          <mxGeometry relative="1" as="geometry" />
        </mxCell>
        <mxCell id="Ra7P1JBBZSfs96q6E-a3-6" value="Create list of digits" style="rounded=0;whiteSpace=wrap;html=1;fillColor=#0050ef;fontColor=#ffffff;strokeColor=#001DBC;fontSize=15;fontStyle=1" vertex="1" parent="1">
          <mxGeometry x="640" y="80" width="80" height="80" as="geometry" />
        </mxCell>
        <mxCell id="Ra7P1JBBZSfs96q6E-a3-12" value="" style="edgeStyle=orthogonalEdgeStyle;rounded=0;orthogonalLoop=1;jettySize=auto;html=1;" edge="1" parent="1" source="Ra7P1JBBZSfs96q6E-a3-8" target="Ra7P1JBBZSfs96q6E-a3-11">
          <mxGeometry relative="1" as="geometry" />
        </mxCell>
        <mxCell id="Ra7P1JBBZSfs96q6E-a3-8" value="Create a new number from 10*(first digit) + (second digit)" style="rounded=0;whiteSpace=wrap;html=1;fillColor=#0050ef;fontColor=#ffffff;strokeColor=#001DBC;fontSize=10;fontStyle=1" vertex="1" parent="1">
          <mxGeometry x="760" y="80" width="80" height="80" as="geometry" />
        </mxCell>
        <mxCell id="Ra7P1JBBZSfs96q6E-a3-11" value="Rolling sum of numbers" style="rounded=0;whiteSpace=wrap;html=1;fillColor=#0050ef;fontColor=#ffffff;strokeColor=#001DBC;fontSize=15;fontStyle=1" vertex="1" parent="1">
          <mxGeometry x="880" y="80" width="80" height="80" as="geometry" />
        </mxCell>
        <mxCell id="Ra7P1JBBZSfs96q6E-a3-13" value="Print rolling sum" style="rounded=0;whiteSpace=wrap;html=1;fillColor=#0050ef;fontColor=#ffffff;strokeColor=#001DBC;fontSize=15;fontStyle=1" vertex="1" parent="1">
          <mxGeometry x="1080" y="80" width="82.5" height="80" as="geometry" />
        </mxCell>
      </root>
    </mxGraphModel>
  </diagram>
</mxfile>
